<?xml version="1.0" encoding="utf-8"?>
<!-- Generator: Adobe Illustrator 26.5.0, SVG Export Plug-In . SVG Version: 6.00 Build 0)  -->
<svg version="1.1" id="_x2014_ÎÓÈ_x5F_1" xmlns="http://www.w3.org/2000/svg" xmlns:xlink="http://www.w3.org/1999/xlink"
	 x="0px" y="0px" viewBox="0 0 554.4 628.8" style="enable-background:new 0 0 554.4 628.8;" xml:space="preserve">
<style type="text/css">
	.st0{fill:#E2E2E2;}
	.st1{fill:#AFAFAF;}
</style>
<ellipse class="st0" cx="270.6" cy="573.5" rx="270.6" ry="29.6"/>
<g>
	<path class="st1" d="M152.8,44.4C97.8,76.1,58.5,127.3,42.1,188.6c-33.9,126.5,41.4,257,167.9,290.9c57.2,15.3,116.9,9,169.2-17.8
		L258.1,251.8l62.7-234.1C263.3,5.4,204.1,14.7,152.8,44.4z"/>
	<path class="st1" d="M351.5,0l-64.6,241.2L528,305.8C556.8,174,480.1,41,351.5,0z"/>
	<path class="st1" d="M521.6,330l-224.1-60.1l116,200.9C465.1,437.8,503,388.4,521.6,330z"/>
</g>
</svg>
